<svg xmlns="http://www.w3.org/2000/svg" xmlns:xlink="http://www.w3.org/1999/xlink" width="500" zoomAndPan="magnify" viewBox="0 0 375 225" height="300" preserveAspectRatio="xMidYMid meet" version="1.0"><defs><g/></defs><g fill="#ff00ff" fill-opacity="1"><g transform="translate(11.422206, 145.082671)"><g><path d="M 50.753906 -35.644531 L 36.6875 -35.644531 L 36.6875 -37 L 50.753906 -37 Z M 28.765625 -55.445312 L 20.21875 -55.445312 L 20.21875 -56.800781 L 28.765625 -56.800781 Z M 47.941406 -52.214844 L 47.941406 -53.152344 L 57.113281 -53.152344 L 57.113281 -57.53125 C 57.113281 -58.78125 56.488281 -59.40625 56.070312 -59.71875 C 55.550781 -60.136719 54.714844 -60.34375 53.464844 -59.925781 L 33.664062 -53.152344 L 24.492188 -53.152344 L 9.484375 -48.046875 C 8.335938 -47.628906 7.398438 -47.210938 6.671875 -46.691406 L 15.214844 -46.691406 C 14.800781 -46.378906 14.382812 -46.066406 14.175781 -45.648438 C 13.445312 -44.710938 13.027344 -43.460938 13.027344 -42 L 13.027344 -36.6875 C 13.027344 -36.476562 13.027344 -36.269531 13.027344 -36.058594 L 6.671875 -36.058594 C 6.773438 -35.332031 6.984375 -34.601562 7.191406 -33.976562 L 12.296875 -33.976562 C 12.402344 -33.558594 12.609375 -33.246094 12.820312 -33.039062 C 13.546875 -32.101562 14.800781 -31.371094 16.675781 -30.746094 L 51.484375 -18.96875 C 52.421875 -18.65625 53.359375 -18.65625 53.988281 -19.175781 C 54.507812 -19.488281 55.132812 -20.113281 55.132812 -21.367188 L 55.132812 -26.679688 C 55.132812 -28.660156 53.882812 -29.285156 53.152344 -29.496094 L 39.8125 -33.976562 L 34.808594 -33.976562 L 28.242188 -36.058594 L 34.601562 -36.058594 L 25.636719 -39.082031 L 25.636719 -39.605469 L 46.484375 -46.691406 L 37.9375 -46.691406 L 46.066406 -49.402344 C 46.691406 -49.609375 47.941406 -50.234375 47.941406 -52.214844 Z M 47.941406 -52.214844 "/></g></g></g><g fill="#ff00ff" fill-opacity="1"><g transform="translate(76.765303, 145.082671)"><g><path d="M 54.195312 -77.75 L 56.800781 -84.210938 L 47.210938 -84.210938 L 47.941406 -86.292969 C 48.566406 -87.859375 47.421875 -89.628906 45.753906 -89.628906 L 39.1875 -89.628906 C 38.144531 -89.628906 37.207031 -89.003906 36.894531 -88.066406 L 35.332031 -84.210938 L 45.023438 -84.210938 L 42.417969 -77.75 L 30.640625 -77.75 L 29.808594 -75.558594 L 40.230469 -75.558594 L 36.269531 -65.660156 L 29.703125 -65.660156 L 27.097656 -59.09375 L 35.746094 -59.09375 L 31.578125 -48.566406 L 19.699219 -48.566406 L 18.863281 -46.378906 L 30.121094 -46.378906 L 23.554688 -29.808594 L 15.839844 -29.808594 L 13.234375 -23.242188 L 22.09375 -23.242188 L 20.324219 -18.757812 L 14.382812 -18.757812 L 11.777344 -12.296875 L 14.382812 -12.296875 L 10.839844 -3.230469 C 10.109375 -1.667969 11.359375 0.105469 13.027344 0.105469 L 19.59375 0.105469 C 20.636719 0.105469 21.46875 -0.519531 21.886719 -1.460938 L 26.160156 -12.296875 L 23.554688 -12.296875 L 26.160156 -18.757812 L 32.101562 -18.757812 L 33.976562 -23.242188 L 25.117188 -23.242188 L 27.617188 -29.808594 L 35.332031 -29.808594 L 41.898438 -46.378906 L 33.976562 -46.378906 L 34.808594 -48.566406 L 44.816406 -48.566406 L 48.984375 -59.09375 L 38.980469 -59.09375 L 41.480469 -65.660156 L 48.046875 -65.660156 L 52.007812 -75.558594 L 45.230469 -75.558594 L 46.066406 -77.75 Z M 14.800781 -42.105469 L 21.367188 -42.105469 L 21.367188 -40.957031 L 14.800781 -40.957031 Z M 14.800781 -42.105469 "/></g></g></g><g fill="#ff00ff" fill-opacity="1"><g transform="translate(143.775857, 145.082671)"><g><path d="M 70.871094 -82.023438 L 70.871094 -82.4375 C 70.871094 -85.667969 68.890625 -86.085938 67.953125 -86.085938 L 8.128906 -86.085938 C 7.191406 -86.085938 5.210938 -85.667969 5.210938 -82.335938 L 5.210938 -82.023438 L 16.882812 -82.023438 L 16.882812 -79.9375 L 5.210938 -79.9375 L 5.210938 -74.207031 C 5.210938 -73.996094 5.210938 -73.683594 5.316406 -73.476562 L 11.777344 -73.476562 C 12.089844 -70.972656 13.863281 -70.660156 14.589844 -70.660156 L 74.519531 -70.558594 C 75.246094 -70.558594 77.019531 -70.871094 77.332031 -73.476562 L 70.871094 -73.476562 C 70.871094 -73.683594 70.871094 -73.890625 70.871094 -74.207031 L 70.871094 -79.9375 L 82.542969 -79.9375 L 82.542969 -82.023438 Z M 77.019531 -8.023438 L 77.019531 -14.902344 C 77.019531 -16.46875 76.5 -17.300781 75.871094 -17.820312 L 85.042969 -17.820312 C 84.417969 -18.445312 83.585938 -18.550781 83.167969 -18.550781 L 46.378906 -18.550781 C 44.191406 -18.550781 42.417969 -18.757812 41.0625 -19.28125 C 39.707031 -19.699219 38.664062 -20.425781 37.832031 -21.574219 C 37.3125 -22.304688 36.894531 -23.242188 36.582031 -24.285156 L 28.140625 -24.285156 C 27.929688 -24.804688 27.722656 -25.535156 27.617188 -26.160156 C 27.515625 -26.785156 27.515625 -27.410156 27.410156 -28.035156 C 27.410156 -28.035156 27.410156 -28.660156 27.410156 -29.597656 L 65.972656 -29.597656 C 65.972656 -30.328125 65.972656 -31.371094 65.972656 -32.203125 L 27.515625 -32.203125 C 27.515625 -33.140625 27.515625 -34.082031 27.515625 -34.707031 L 33.871094 -34.707031 C 33.871094 -35.226562 33.871094 -35.539062 33.871094 -35.539062 L 80.457031 -35.539062 C 81.082031 -35.539062 82.230469 -35.644531 82.855469 -36.789062 L 76.5 -36.789062 C 76.707031 -37.3125 77.019531 -38.039062 77.019531 -39.082031 L 77.019531 -43.042969 L 81.8125 -43.042969 L 81.8125 -45.960938 L 77.019531 -45.960938 L 77.019531 -47.316406 C 77.019531 -50.546875 74.933594 -50.964844 74.101562 -50.964844 L 20.324219 -50.859375 C 17.300781 -50.652344 14.695312 -48.984375 13.132812 -46.484375 C 13.027344 -46.273438 13.027344 -46.066406 12.921875 -45.960938 L 17.71875 -45.960938 C 17.40625 -45.230469 17.09375 -44.605469 16.882812 -43.773438 L 16.882812 -43.042969 L 12.089844 -43.042969 L 11.984375 -36.789062 L 18.34375 -36.789062 L 18.34375 -34.707031 L 12.089844 -34.707031 L 11.984375 -32.203125 L 22.199219 -32.203125 L 22.199219 -30.121094 C 22.199219 -30.015625 22.199219 -29.808594 22.199219 -29.597656 L 11.984375 -29.597656 C 12.089844 -27.722656 12.195312 -25.949219 12.296875 -24.285156 L 20.84375 -24.285156 C 21.050781 -21.886719 21.367188 -19.800781 21.78125 -17.820312 L 12.609375 -17.820312 C 12.609375 -17.820312 12.714844 -17.71875 12.714844 -17.613281 C 13.546875 -13.863281 14.902344 -10.628906 16.78125 -8.023438 L 25.429688 -8.023438 C 25.535156 -7.921875 25.636719 -7.609375 25.847656 -7.398438 C 26.261719 -6.878906 26.679688 -6.460938 27.203125 -5.941406 L 18.65625 -5.941406 C 20.53125 -4.066406 22.824219 -2.605469 25.429688 -1.667969 C 28.554688 -0.519531 32.515625 0.105469 37.101562 0.105469 L 74.101562 0.105469 C 75.039062 0.105469 77.125 -0.3125 77.125 -3.542969 L 77.125 -5.941406 L 85.566406 -5.941406 L 85.566406 -8.023438 Z M 17.71875 -57.425781 L 52.214844 -57.425781 L 52.214844 -56.277344 L 17.71875 -56.277344 Z M 50.027344 -23.972656 L 73.164062 -23.972656 L 73.164062 -22.824219 L 50.027344 -22.824219 Z M 32.515625 -66.074219 L 67.847656 -66.074219 L 67.847656 -64.410156 L 32.515625 -64.410156 Z M 32.515625 -66.074219 "/></g></g></g><g fill="#ff00ff" fill-opacity="1"><g transform="translate(231.316862, 145.082671)"><g><path d="M 74.207031 -5.523438 L 74.207031 -11.777344 C 74.207031 -15.007812 72.121094 -15.425781 71.285156 -15.425781 L 37.414062 -15.425781 C 35.226562 -15.425781 33.351562 -15.632812 31.996094 -16.152344 L 26.679688 -16.152344 C 25.429688 -16.570312 24.386719 -17.40625 23.65625 -18.445312 C 22.824219 -19.59375 22.304688 -21.15625 21.886719 -23.03125 C 21.886719 -23.03125 21.886719 -23.03125 21.886719 -23.136719 L 26.472656 -23.136719 C 26.160156 -25.117188 25.949219 -27.722656 25.949219 -30.847656 L 25.949219 -34.394531 L 35.121094 -34.394531 L 35.121094 -36.6875 L 26.261719 -36.6875 L 26.261719 -54.402344 L 21.886719 -54.402344 L 21.886719 -61.386719 L 40.75 -61.386719 L 40.75 -66.074219 L 23.34375 -66.074219 L 23.34375 -73.058594 L 26.261719 -73.058594 L 26.261719 -79.9375 L 20.949219 -79.9375 L 20.949219 -82.230469 C 20.949219 -85.566406 18.863281 -85.878906 18.03125 -85.878906 L 8.441406 -85.878906 C 7.503906 -85.878906 5.417969 -85.566406 5.417969 -82.230469 L 5.417969 -79.9375 L 10.839844 -79.9375 L 10.839844 -73.058594 L 1.667969 -73.058594 L 1.667969 -66.074219 L 9.691406 -66.074219 L 9.691406 -61.386719 L 6.359375 -61.386719 L 6.359375 -54.402344 L 10.839844 -54.402344 L 10.839844 -36.6875 L 5.628906 -36.6875 L 5.628906 -34.394531 L 10.527344 -34.394531 L 10.527344 -32.621094 C 10.527344 -29.078125 10.734375 -25.949219 11.046875 -23.136719 L 6.359375 -23.136719 C 6.671875 -21.15625 6.878906 -19.28125 7.296875 -17.71875 C 7.398438 -17.09375 7.609375 -16.675781 7.710938 -16.152344 L 12.921875 -16.152344 C 13.863281 -12.714844 15.214844 -9.691406 17.09375 -7.503906 C 17.613281 -6.773438 18.132812 -6.148438 18.757812 -5.523438 L 8.753906 -5.523438 C 9.691406 -4.691406 10.734375 -3.960938 11.882812 -3.230469 L 24.386719 -3.230469 C 25.429688 -2.605469 26.472656 -2.085938 27.617188 -1.667969 C 30.847656 -0.519531 34.808594 0.105469 39.292969 0.105469 L 73.789062 0.105469 C 74.621094 0.105469 76.5 -0.3125 76.601562 -3.230469 L 79.730469 -3.230469 C 79.730469 -3.335938 79.730469 -3.4375 79.730469 -3.542969 L 79.730469 -5.523438 Z M 54.613281 -40.332031 L 39.394531 -40.332031 L 39.394531 -41.6875 L 54.613281 -41.6875 Z M 49.714844 -22.511719 L 27.828125 -22.511719 L 27.828125 -23.65625 L 49.714844 -23.65625 Z M 53.046875 -73.164062 L 31.683594 -73.164062 L 31.683594 -75.246094 L 53.046875 -75.246094 Z M 53.046875 -73.164062 "/></g></g></g><g fill="#ff00ff" fill-opacity="1"><g transform="translate(316.252485, 145.082671)"><g><path d="M 20.324219 -41.269531 L 6.359375 -41.269531 L 6.359375 -42.625 L 20.324219 -42.625 Z M 21.886719 -35.332031 L 13.339844 -35.332031 L 13.339844 -36.789062 L 21.886719 -36.789062 Z M 17.613281 -26.679688 L 17.613281 -25.742188 L 8.441406 -25.742188 L 8.441406 -21.367188 C 8.441406 -20.113281 9.066406 -19.488281 9.484375 -19.175781 C 10.003906 -18.863281 10.839844 -18.550781 12.089844 -18.96875 L 31.890625 -25.742188 L 41.0625 -25.742188 L 56.070312 -30.953125 C 57.21875 -31.265625 58.15625 -31.789062 58.78125 -32.203125 L 50.339844 -32.203125 C 50.753906 -32.515625 51.171875 -32.933594 51.382812 -33.246094 C 52.109375 -34.183594 52.527344 -35.433594 52.527344 -36.894531 L 52.527344 -42.210938 C 52.527344 -42.417969 52.527344 -42.625 52.421875 -42.835938 L 58.78125 -42.835938 C 58.78125 -43.667969 58.570312 -44.398438 58.257812 -45.023438 L 53.257812 -45.023438 C 53.152344 -45.335938 52.945312 -45.648438 52.734375 -45.960938 C 52.007812 -46.898438 50.753906 -47.628906 48.878906 -48.253906 L 14.070312 -59.925781 C 13.027344 -60.34375 12.195312 -60.238281 11.464844 -59.71875 C 11.046875 -59.40625 10.421875 -58.78125 10.421875 -57.53125 L 10.421875 -52.320312 C 10.421875 -50.234375 11.671875 -49.609375 12.402344 -49.402344 L 25.742188 -45.023438 L 30.746094 -45.023438 L 37.3125 -42.835938 L 30.953125 -42.835938 L 39.917969 -39.917969 L 39.917969 -39.292969 L 19.074219 -32.203125 L 27.617188 -32.203125 L 19.488281 -29.496094 C 18.757812 -29.285156 17.613281 -28.660156 17.613281 -26.679688 Z M 17.613281 -26.679688 "/></g></g></g><g fill="#00ffff" fill-opacity="1"><g transform="translate(-1.606053, 145.082671)"><g><path d="M 50.753906 -35.644531 L 36.6875 -35.644531 L 36.6875 -37 L 50.753906 -37 Z M 28.765625 -55.445312 L 20.21875 -55.445312 L 20.21875 -56.800781 L 28.765625 -56.800781 Z M 47.941406 -52.214844 L 47.941406 -53.152344 L 57.113281 -53.152344 L 57.113281 -57.53125 C 57.113281 -58.78125 56.488281 -59.40625 56.070312 -59.71875 C 55.550781 -60.136719 54.714844 -60.34375 53.464844 -59.925781 L 33.664062 -53.152344 L 24.492188 -53.152344 L 9.484375 -48.046875 C 8.335938 -47.628906 7.398438 -47.210938 6.671875 -46.691406 L 15.214844 -46.691406 C 14.800781 -46.378906 14.382812 -46.066406 14.175781 -45.648438 C 13.445312 -44.710938 13.027344 -43.460938 13.027344 -42 L 13.027344 -36.6875 C 13.027344 -36.476562 13.027344 -36.269531 13.027344 -36.058594 L 6.671875 -36.058594 C 6.773438 -35.332031 6.984375 -34.601562 7.191406 -33.976562 L 12.296875 -33.976562 C 12.402344 -33.558594 12.609375 -33.246094 12.820312 -33.039062 C 13.546875 -32.101562 14.800781 -31.371094 16.675781 -30.746094 L 51.484375 -18.96875 C 52.421875 -18.65625 53.359375 -18.65625 53.988281 -19.175781 C 54.507812 -19.488281 55.132812 -20.113281 55.132812 -21.367188 L 55.132812 -26.679688 C 55.132812 -28.660156 53.882812 -29.285156 53.152344 -29.496094 L 39.8125 -33.976562 L 34.808594 -33.976562 L 28.242188 -36.058594 L 34.601562 -36.058594 L 25.636719 -39.082031 L 25.636719 -39.605469 L 46.484375 -46.691406 L 37.9375 -46.691406 L 46.066406 -49.402344 C 46.691406 -49.609375 47.941406 -50.234375 47.941406 -52.214844 Z M 47.941406 -52.214844 "/></g></g></g><g fill="#00ffff" fill-opacity="1"><g transform="translate(63.737044, 145.082671)"><g><path d="M 54.195312 -77.75 L 56.800781 -84.210938 L 47.210938 -84.210938 L 47.941406 -86.292969 C 48.566406 -87.859375 47.421875 -89.628906 45.753906 -89.628906 L 39.1875 -89.628906 C 38.144531 -89.628906 37.207031 -89.003906 36.894531 -88.066406 L 35.332031 -84.210938 L 45.023438 -84.210938 L 42.417969 -77.75 L 30.640625 -77.75 L 29.808594 -75.558594 L 40.230469 -75.558594 L 36.269531 -65.660156 L 29.703125 -65.660156 L 27.097656 -59.09375 L 35.746094 -59.09375 L 31.578125 -48.566406 L 19.699219 -48.566406 L 18.863281 -46.378906 L 30.121094 -46.378906 L 23.554688 -29.808594 L 15.839844 -29.808594 L 13.234375 -23.242188 L 22.09375 -23.242188 L 20.324219 -18.757812 L 14.382812 -18.757812 L 11.777344 -12.296875 L 14.382812 -12.296875 L 10.839844 -3.230469 C 10.109375 -1.667969 11.359375 0.105469 13.027344 0.105469 L 19.59375 0.105469 C 20.636719 0.105469 21.46875 -0.519531 21.886719 -1.460938 L 26.160156 -12.296875 L 23.554688 -12.296875 L 26.160156 -18.757812 L 32.101562 -18.757812 L 33.976562 -23.242188 L 25.117188 -23.242188 L 27.617188 -29.808594 L 35.332031 -29.808594 L 41.898438 -46.378906 L 33.976562 -46.378906 L 34.808594 -48.566406 L 44.816406 -48.566406 L 48.984375 -59.09375 L 38.980469 -59.09375 L 41.480469 -65.660156 L 48.046875 -65.660156 L 52.007812 -75.558594 L 45.230469 -75.558594 L 46.066406 -77.75 Z M 14.800781 -42.105469 L 21.367188 -42.105469 L 21.367188 -40.957031 L 14.800781 -40.957031 Z M 14.800781 -42.105469 "/></g></g></g><g fill="#00ffff" fill-opacity="1"><g transform="translate(130.747598, 145.082671)"><g><path d="M 70.871094 -82.023438 L 70.871094 -82.4375 C 70.871094 -85.667969 68.890625 -86.085938 67.953125 -86.085938 L 8.128906 -86.085938 C 7.191406 -86.085938 5.210938 -85.667969 5.210938 -82.335938 L 5.210938 -82.023438 L 16.882812 -82.023438 L 16.882812 -79.9375 L 5.210938 -79.9375 L 5.210938 -74.207031 C 5.210938 -73.996094 5.210938 -73.683594 5.316406 -73.476562 L 11.777344 -73.476562 C 12.089844 -70.972656 13.863281 -70.660156 14.589844 -70.660156 L 74.519531 -70.558594 C 75.246094 -70.558594 77.019531 -70.871094 77.332031 -73.476562 L 70.871094 -73.476562 C 70.871094 -73.683594 70.871094 -73.890625 70.871094 -74.207031 L 70.871094 -79.9375 L 82.542969 -79.9375 L 82.542969 -82.023438 Z M 77.019531 -8.023438 L 77.019531 -14.902344 C 77.019531 -16.46875 76.5 -17.300781 75.871094 -17.820312 L 85.042969 -17.820312 C 84.417969 -18.445312 83.585938 -18.550781 83.167969 -18.550781 L 46.378906 -18.550781 C 44.191406 -18.550781 42.417969 -18.757812 41.0625 -19.28125 C 39.707031 -19.699219 38.664062 -20.425781 37.832031 -21.574219 C 37.3125 -22.304688 36.894531 -23.242188 36.582031 -24.285156 L 28.140625 -24.285156 C 27.929688 -24.804688 27.722656 -25.535156 27.617188 -26.160156 C 27.515625 -26.785156 27.515625 -27.410156 27.410156 -28.035156 C 27.410156 -28.035156 27.410156 -28.660156 27.410156 -29.597656 L 65.972656 -29.597656 C 65.972656 -30.328125 65.972656 -31.371094 65.972656 -32.203125 L 27.515625 -32.203125 C 27.515625 -33.140625 27.515625 -34.082031 27.515625 -34.707031 L 33.871094 -34.707031 C 33.871094 -35.226562 33.871094 -35.539062 33.871094 -35.539062 L 80.457031 -35.539062 C 81.082031 -35.539062 82.230469 -35.644531 82.855469 -36.789062 L 76.5 -36.789062 C 76.707031 -37.3125 77.019531 -38.039062 77.019531 -39.082031 L 77.019531 -43.042969 L 81.8125 -43.042969 L 81.8125 -45.960938 L 77.019531 -45.960938 L 77.019531 -47.316406 C 77.019531 -50.546875 74.933594 -50.964844 74.101562 -50.964844 L 20.324219 -50.859375 C 17.300781 -50.652344 14.695312 -48.984375 13.132812 -46.484375 C 13.027344 -46.273438 13.027344 -46.066406 12.921875 -45.960938 L 17.71875 -45.960938 C 17.40625 -45.230469 17.09375 -44.605469 16.882812 -43.773438 L 16.882812 -43.042969 L 12.089844 -43.042969 L 11.984375 -36.789062 L 18.34375 -36.789062 L 18.34375 -34.707031 L 12.089844 -34.707031 L 11.984375 -32.203125 L 22.199219 -32.203125 L 22.199219 -30.121094 C 22.199219 -30.015625 22.199219 -29.808594 22.199219 -29.597656 L 11.984375 -29.597656 C 12.089844 -27.722656 12.195312 -25.949219 12.296875 -24.285156 L 20.84375 -24.285156 C 21.050781 -21.886719 21.367188 -19.800781 21.78125 -17.820312 L 12.609375 -17.820312 C 12.609375 -17.820312 12.714844 -17.71875 12.714844 -17.613281 C 13.546875 -13.863281 14.902344 -10.628906 16.78125 -8.023438 L 25.429688 -8.023438 C 25.535156 -7.921875 25.636719 -7.609375 25.847656 -7.398438 C 26.261719 -6.878906 26.679688 -6.460938 27.203125 -5.941406 L 18.65625 -5.941406 C 20.53125 -4.066406 22.824219 -2.605469 25.429688 -1.667969 C 28.554688 -0.519531 32.515625 0.105469 37.101562 0.105469 L 74.101562 0.105469 C 75.039062 0.105469 77.125 -0.3125 77.125 -3.542969 L 77.125 -5.941406 L 85.566406 -5.941406 L 85.566406 -8.023438 Z M 17.71875 -57.425781 L 52.214844 -57.425781 L 52.214844 -56.277344 L 17.71875 -56.277344 Z M 50.027344 -23.972656 L 73.164062 -23.972656 L 73.164062 -22.824219 L 50.027344 -22.824219 Z M 32.515625 -66.074219 L 67.847656 -66.074219 L 67.847656 -64.410156 L 32.515625 -64.410156 Z M 32.515625 -66.074219 "/></g></g></g><g fill="#00ffff" fill-opacity="1"><g transform="translate(218.288603, 145.082671)"><g><path d="M 74.207031 -5.523438 L 74.207031 -11.777344 C 74.207031 -15.007812 72.121094 -15.425781 71.285156 -15.425781 L 37.414062 -15.425781 C 35.226562 -15.425781 33.351562 -15.632812 31.996094 -16.152344 L 26.679688 -16.152344 C 25.429688 -16.570312 24.386719 -17.40625 23.65625 -18.445312 C 22.824219 -19.59375 22.304688 -21.15625 21.886719 -23.03125 C 21.886719 -23.03125 21.886719 -23.03125 21.886719 -23.136719 L 26.472656 -23.136719 C 26.160156 -25.117188 25.949219 -27.722656 25.949219 -30.847656 L 25.949219 -34.394531 L 35.121094 -34.394531 L 35.121094 -36.6875 L 26.261719 -36.6875 L 26.261719 -54.402344 L 21.886719 -54.402344 L 21.886719 -61.386719 L 40.75 -61.386719 L 40.75 -66.074219 L 23.34375 -66.074219 L 23.34375 -73.058594 L 26.261719 -73.058594 L 26.261719 -79.9375 L 20.949219 -79.9375 L 20.949219 -82.230469 C 20.949219 -85.566406 18.863281 -85.878906 18.03125 -85.878906 L 8.441406 -85.878906 C 7.503906 -85.878906 5.417969 -85.566406 5.417969 -82.230469 L 5.417969 -79.9375 L 10.839844 -79.9375 L 10.839844 -73.058594 L 1.667969 -73.058594 L 1.667969 -66.074219 L 9.691406 -66.074219 L 9.691406 -61.386719 L 6.359375 -61.386719 L 6.359375 -54.402344 L 10.839844 -54.402344 L 10.839844 -36.6875 L 5.628906 -36.6875 L 5.628906 -34.394531 L 10.527344 -34.394531 L 10.527344 -32.621094 C 10.527344 -29.078125 10.734375 -25.949219 11.046875 -23.136719 L 6.359375 -23.136719 C 6.671875 -21.15625 6.878906 -19.28125 7.296875 -17.71875 C 7.398438 -17.09375 7.609375 -16.675781 7.710938 -16.152344 L 12.921875 -16.152344 C 13.863281 -12.714844 15.214844 -9.691406 17.09375 -7.503906 C 17.613281 -6.773438 18.132812 -6.148438 18.757812 -5.523438 L 8.753906 -5.523438 C 9.691406 -4.691406 10.734375 -3.960938 11.882812 -3.230469 L 24.386719 -3.230469 C 25.429688 -2.605469 26.472656 -2.085938 27.617188 -1.667969 C 30.847656 -0.519531 34.808594 0.105469 39.292969 0.105469 L 73.789062 0.105469 C 74.621094 0.105469 76.5 -0.3125 76.601562 -3.230469 L 79.730469 -3.230469 C 79.730469 -3.335938 79.730469 -3.4375 79.730469 -3.542969 L 79.730469 -5.523438 Z M 54.613281 -40.332031 L 39.394531 -40.332031 L 39.394531 -41.6875 L 54.613281 -41.6875 Z M 49.714844 -22.511719 L 27.828125 -22.511719 L 27.828125 -23.65625 L 49.714844 -23.65625 Z M 53.046875 -73.164062 L 31.683594 -73.164062 L 31.683594 -75.246094 L 53.046875 -75.246094 Z M 53.046875 -73.164062 "/></g></g></g><g fill="#00ffff" fill-opacity="1"><g transform="translate(303.224226, 145.082671)"><g><path d="M 20.324219 -41.269531 L 6.359375 -41.269531 L 6.359375 -42.625 L 20.324219 -42.625 Z M 21.886719 -35.332031 L 13.339844 -35.332031 L 13.339844 -36.789062 L 21.886719 -36.789062 Z M 17.613281 -26.679688 L 17.613281 -25.742188 L 8.441406 -25.742188 L 8.441406 -21.367188 C 8.441406 -20.113281 9.066406 -19.488281 9.484375 -19.175781 C 10.003906 -18.863281 10.839844 -18.550781 12.089844 -18.96875 L 31.890625 -25.742188 L 41.0625 -25.742188 L 56.070312 -30.953125 C 57.21875 -31.265625 58.15625 -31.789062 58.78125 -32.203125 L 50.339844 -32.203125 C 50.753906 -32.515625 51.171875 -32.933594 51.382812 -33.246094 C 52.109375 -34.183594 52.527344 -35.433594 52.527344 -36.894531 L 52.527344 -42.210938 C 52.527344 -42.417969 52.527344 -42.625 52.421875 -42.835938 L 58.78125 -42.835938 C 58.78125 -43.667969 58.570312 -44.398438 58.257812 -45.023438 L 53.257812 -45.023438 C 53.152344 -45.335938 52.945312 -45.648438 52.734375 -45.960938 C 52.007812 -46.898438 50.753906 -47.628906 48.878906 -48.253906 L 14.070312 -59.925781 C 13.027344 -60.34375 12.195312 -60.238281 11.464844 -59.71875 C 11.046875 -59.40625 10.421875 -58.78125 10.421875 -57.53125 L 10.421875 -52.320312 C 10.421875 -50.234375 11.671875 -49.609375 12.402344 -49.402344 L 25.742188 -45.023438 L 30.746094 -45.023438 L 37.3125 -42.835938 L 30.953125 -42.835938 L 39.917969 -39.917969 L 39.917969 -39.292969 L 19.074219 -32.203125 L 27.617188 -32.203125 L 19.488281 -29.496094 C 18.757812 -29.285156 17.613281 -28.660156 17.613281 -26.679688 Z M 17.613281 -26.679688 "/></g></g></g><g fill="#a6a6a6" fill-opacity="1"><g transform="translate(4.908077, 145.082671)"><g><path d="M 50.753906 -35.644531 L 36.6875 -35.644531 L 36.6875 -37 L 50.753906 -37 Z M 28.765625 -55.445312 L 20.21875 -55.445312 L 20.21875 -56.800781 L 28.765625 -56.800781 Z M 47.941406 -52.214844 L 47.941406 -53.152344 L 57.113281 -53.152344 L 57.113281 -57.53125 C 57.113281 -58.78125 56.488281 -59.40625 56.070312 -59.71875 C 55.550781 -60.136719 54.714844 -60.34375 53.464844 -59.925781 L 33.664062 -53.152344 L 24.492188 -53.152344 L 9.484375 -48.046875 C 8.335938 -47.628906 7.398438 -47.210938 6.671875 -46.691406 L 15.214844 -46.691406 C 14.800781 -46.378906 14.382812 -46.066406 14.175781 -45.648438 C 13.445312 -44.710938 13.027344 -43.460938 13.027344 -42 L 13.027344 -36.6875 C 13.027344 -36.476562 13.027344 -36.269531 13.027344 -36.058594 L 6.671875 -36.058594 C 6.773438 -35.332031 6.984375 -34.601562 7.191406 -33.976562 L 12.296875 -33.976562 C 12.402344 -33.558594 12.609375 -33.246094 12.820312 -33.039062 C 13.546875 -32.101562 14.800781 -31.371094 16.675781 -30.746094 L 51.484375 -18.96875 C 52.421875 -18.65625 53.359375 -18.65625 53.988281 -19.175781 C 54.507812 -19.488281 55.132812 -20.113281 55.132812 -21.367188 L 55.132812 -26.679688 C 55.132812 -28.660156 53.882812 -29.285156 53.152344 -29.496094 L 39.8125 -33.976562 L 34.808594 -33.976562 L 28.242188 -36.058594 L 34.601562 -36.058594 L 25.636719 -39.082031 L 25.636719 -39.605469 L 46.484375 -46.691406 L 37.9375 -46.691406 L 46.066406 -49.402344 C 46.691406 -49.609375 47.941406 -50.234375 47.941406 -52.214844 Z M 47.941406 -52.214844 "/></g></g></g><g fill="#a6a6a6" fill-opacity="1"><g transform="translate(70.251173, 145.082671)"><g><path d="M 54.195312 -77.75 L 56.800781 -84.210938 L 47.210938 -84.210938 L 47.941406 -86.292969 C 48.566406 -87.859375 47.421875 -89.628906 45.753906 -89.628906 L 39.1875 -89.628906 C 38.144531 -89.628906 37.207031 -89.003906 36.894531 -88.066406 L 35.332031 -84.210938 L 45.023438 -84.210938 L 42.417969 -77.75 L 30.640625 -77.75 L 29.808594 -75.558594 L 40.230469 -75.558594 L 36.269531 -65.660156 L 29.703125 -65.660156 L 27.097656 -59.09375 L 35.746094 -59.09375 L 31.578125 -48.566406 L 19.699219 -48.566406 L 18.863281 -46.378906 L 30.121094 -46.378906 L 23.554688 -29.808594 L 15.839844 -29.808594 L 13.234375 -23.242188 L 22.09375 -23.242188 L 20.324219 -18.757812 L 14.382812 -18.757812 L 11.777344 -12.296875 L 14.382812 -12.296875 L 10.839844 -3.230469 C 10.109375 -1.667969 11.359375 0.105469 13.027344 0.105469 L 19.59375 0.105469 C 20.636719 0.105469 21.46875 -0.519531 21.886719 -1.460938 L 26.160156 -12.296875 L 23.554688 -12.296875 L 26.160156 -18.757812 L 32.101562 -18.757812 L 33.976562 -23.242188 L 25.117188 -23.242188 L 27.617188 -29.808594 L 35.332031 -29.808594 L 41.898438 -46.378906 L 33.976562 -46.378906 L 34.808594 -48.566406 L 44.816406 -48.566406 L 48.984375 -59.09375 L 38.980469 -59.09375 L 41.480469 -65.660156 L 48.046875 -65.660156 L 52.007812 -75.558594 L 45.230469 -75.558594 L 46.066406 -77.75 Z M 14.800781 -42.105469 L 21.367188 -42.105469 L 21.367188 -40.957031 L 14.800781 -40.957031 Z M 14.800781 -42.105469 "/></g></g></g><g fill="#a6a6a6" fill-opacity="1"><g transform="translate(137.261727, 145.082671)"><g><path d="M 70.871094 -82.023438 L 70.871094 -82.4375 C 70.871094 -85.667969 68.890625 -86.085938 67.953125 -86.085938 L 8.128906 -86.085938 C 7.191406 -86.085938 5.210938 -85.667969 5.210938 -82.335938 L 5.210938 -82.023438 L 16.882812 -82.023438 L 16.882812 -79.9375 L 5.210938 -79.9375 L 5.210938 -74.207031 C 5.210938 -73.996094 5.210938 -73.683594 5.316406 -73.476562 L 11.777344 -73.476562 C 12.089844 -70.972656 13.863281 -70.660156 14.589844 -70.660156 L 74.519531 -70.558594 C 75.246094 -70.558594 77.019531 -70.871094 77.332031 -73.476562 L 70.871094 -73.476562 C 70.871094 -73.683594 70.871094 -73.890625 70.871094 -74.207031 L 70.871094 -79.9375 L 82.542969 -79.9375 L 82.542969 -82.023438 Z M 77.019531 -8.023438 L 77.019531 -14.902344 C 77.019531 -16.46875 76.5 -17.300781 75.871094 -17.820312 L 85.042969 -17.820312 C 84.417969 -18.445312 83.585938 -18.550781 83.167969 -18.550781 L 46.378906 -18.550781 C 44.191406 -18.550781 42.417969 -18.757812 41.0625 -19.28125 C 39.707031 -19.699219 38.664062 -20.425781 37.832031 -21.574219 C 37.3125 -22.304688 36.894531 -23.242188 36.582031 -24.285156 L 28.140625 -24.285156 C 27.929688 -24.804688 27.722656 -25.535156 27.617188 -26.160156 C 27.515625 -26.785156 27.515625 -27.410156 27.410156 -28.035156 C 27.410156 -28.035156 27.410156 -28.660156 27.410156 -29.597656 L 65.972656 -29.597656 C 65.972656 -30.328125 65.972656 -31.371094 65.972656 -32.203125 L 27.515625 -32.203125 C 27.515625 -33.140625 27.515625 -34.082031 27.515625 -34.707031 L 33.871094 -34.707031 C 33.871094 -35.226562 33.871094 -35.539062 33.871094 -35.539062 L 80.457031 -35.539062 C 81.082031 -35.539062 82.230469 -35.644531 82.855469 -36.789062 L 76.5 -36.789062 C 76.707031 -37.3125 77.019531 -38.039062 77.019531 -39.082031 L 77.019531 -43.042969 L 81.8125 -43.042969 L 81.8125 -45.960938 L 77.019531 -45.960938 L 77.019531 -47.316406 C 77.019531 -50.546875 74.933594 -50.964844 74.101562 -50.964844 L 20.324219 -50.859375 C 17.300781 -50.652344 14.695312 -48.984375 13.132812 -46.484375 C 13.027344 -46.273438 13.027344 -46.066406 12.921875 -45.960938 L 17.71875 -45.960938 C 17.40625 -45.230469 17.09375 -44.605469 16.882812 -43.773438 L 16.882812 -43.042969 L 12.089844 -43.042969 L 11.984375 -36.789062 L 18.34375 -36.789062 L 18.34375 -34.707031 L 12.089844 -34.707031 L 11.984375 -32.203125 L 22.199219 -32.203125 L 22.199219 -30.121094 C 22.199219 -30.015625 22.199219 -29.808594 22.199219 -29.597656 L 11.984375 -29.597656 C 12.089844 -27.722656 12.195312 -25.949219 12.296875 -24.285156 L 20.84375 -24.285156 C 21.050781 -21.886719 21.367188 -19.800781 21.78125 -17.820312 L 12.609375 -17.820312 C 12.609375 -17.820312 12.714844 -17.71875 12.714844 -17.613281 C 13.546875 -13.863281 14.902344 -10.628906 16.78125 -8.023438 L 25.429688 -8.023438 C 25.535156 -7.921875 25.636719 -7.609375 25.847656 -7.398438 C 26.261719 -6.878906 26.679688 -6.460938 27.203125 -5.941406 L 18.65625 -5.941406 C 20.53125 -4.066406 22.824219 -2.605469 25.429688 -1.667969 C 28.554688 -0.519531 32.515625 0.105469 37.101562 0.105469 L 74.101562 0.105469 C 75.039062 0.105469 77.125 -0.3125 77.125 -3.542969 L 77.125 -5.941406 L 85.566406 -5.941406 L 85.566406 -8.023438 Z M 17.71875 -57.425781 L 52.214844 -57.425781 L 52.214844 -56.277344 L 17.71875 -56.277344 Z M 50.027344 -23.972656 L 73.164062 -23.972656 L 73.164062 -22.824219 L 50.027344 -22.824219 Z M 32.515625 -66.074219 L 67.847656 -66.074219 L 67.847656 -64.410156 L 32.515625 -64.410156 Z M 32.515625 -66.074219 "/></g></g></g><g fill="#a6a6a6" fill-opacity="1"><g transform="translate(224.802732, 145.082671)"><g><path d="M 74.207031 -5.523438 L 74.207031 -11.777344 C 74.207031 -15.007812 72.121094 -15.425781 71.285156 -15.425781 L 37.414062 -15.425781 C 35.226562 -15.425781 33.351562 -15.632812 31.996094 -16.152344 L 26.679688 -16.152344 C 25.429688 -16.570312 24.386719 -17.40625 23.65625 -18.445312 C 22.824219 -19.59375 22.304688 -21.15625 21.886719 -23.03125 C 21.886719 -23.03125 21.886719 -23.03125 21.886719 -23.136719 L 26.472656 -23.136719 C 26.160156 -25.117188 25.949219 -27.722656 25.949219 -30.847656 L 25.949219 -34.394531 L 35.121094 -34.394531 L 35.121094 -36.6875 L 26.261719 -36.6875 L 26.261719 -54.402344 L 21.886719 -54.402344 L 21.886719 -61.386719 L 40.75 -61.386719 L 40.75 -66.074219 L 23.34375 -66.074219 L 23.34375 -73.058594 L 26.261719 -73.058594 L 26.261719 -79.9375 L 20.949219 -79.9375 L 20.949219 -82.230469 C 20.949219 -85.566406 18.863281 -85.878906 18.03125 -85.878906 L 8.441406 -85.878906 C 7.503906 -85.878906 5.417969 -85.566406 5.417969 -82.230469 L 5.417969 -79.9375 L 10.839844 -79.9375 L 10.839844 -73.058594 L 1.667969 -73.058594 L 1.667969 -66.074219 L 9.691406 -66.074219 L 9.691406 -61.386719 L 6.359375 -61.386719 L 6.359375 -54.402344 L 10.839844 -54.402344 L 10.839844 -36.6875 L 5.628906 -36.6875 L 5.628906 -34.394531 L 10.527344 -34.394531 L 10.527344 -32.621094 C 10.527344 -29.078125 10.734375 -25.949219 11.046875 -23.136719 L 6.359375 -23.136719 C 6.671875 -21.15625 6.878906 -19.28125 7.296875 -17.71875 C 7.398438 -17.09375 7.609375 -16.675781 7.710938 -16.152344 L 12.921875 -16.152344 C 13.863281 -12.714844 15.214844 -9.691406 17.09375 -7.503906 C 17.613281 -6.773438 18.132812 -6.148438 18.757812 -5.523438 L 8.753906 -5.523438 C 9.691406 -4.691406 10.734375 -3.960938 11.882812 -3.230469 L 24.386719 -3.230469 C 25.429688 -2.605469 26.472656 -2.085938 27.617188 -1.667969 C 30.847656 -0.519531 34.808594 0.105469 39.292969 0.105469 L 73.789062 0.105469 C 74.621094 0.105469 76.5 -0.3125 76.601562 -3.230469 L 79.730469 -3.230469 C 79.730469 -3.335938 79.730469 -3.4375 79.730469 -3.542969 L 79.730469 -5.523438 Z M 54.613281 -40.332031 L 39.394531 -40.332031 L 39.394531 -41.6875 L 54.613281 -41.6875 Z M 49.714844 -22.511719 L 27.828125 -22.511719 L 27.828125 -23.65625 L 49.714844 -23.65625 Z M 53.046875 -73.164062 L 31.683594 -73.164062 L 31.683594 -75.246094 L 53.046875 -75.246094 Z M 53.046875 -73.164062 "/></g></g></g><g fill="#a6a6a6" fill-opacity="1"><g transform="translate(309.738355, 145.082671)"><g><path d="M 20.324219 -41.269531 L 6.359375 -41.269531 L 6.359375 -42.625 L 20.324219 -42.625 Z M 21.886719 -35.332031 L 13.339844 -35.332031 L 13.339844 -36.789062 L 21.886719 -36.789062 Z M 17.613281 -26.679688 L 17.613281 -25.742188 L 8.441406 -25.742188 L 8.441406 -21.367188 C 8.441406 -20.113281 9.066406 -19.488281 9.484375 -19.175781 C 10.003906 -18.863281 10.839844 -18.550781 12.089844 -18.96875 L 31.890625 -25.742188 L 41.0625 -25.742188 L 56.070312 -30.953125 C 57.21875 -31.265625 58.15625 -31.789062 58.78125 -32.203125 L 50.339844 -32.203125 C 50.753906 -32.515625 51.171875 -32.933594 51.382812 -33.246094 C 52.109375 -34.183594 52.527344 -35.433594 52.527344 -36.894531 L 52.527344 -42.210938 C 52.527344 -42.417969 52.527344 -42.625 52.421875 -42.835938 L 58.78125 -42.835938 C 58.78125 -43.667969 58.570312 -44.398438 58.257812 -45.023438 L 53.257812 -45.023438 C 53.152344 -45.335938 52.945312 -45.648438 52.734375 -45.960938 C 52.007812 -46.898438 50.753906 -47.628906 48.878906 -48.253906 L 14.070312 -59.925781 C 13.027344 -60.34375 12.195312 -60.238281 11.464844 -59.71875 C 11.046875 -59.40625 10.421875 -58.78125 10.421875 -57.53125 L 10.421875 -52.320312 C 10.421875 -50.234375 11.671875 -49.609375 12.402344 -49.402344 L 25.742188 -45.023438 L 30.746094 -45.023438 L 37.3125 -42.835938 L 30.953125 -42.835938 L 39.917969 -39.917969 L 39.917969 -39.292969 L 19.074219 -32.203125 L 27.617188 -32.203125 L 19.488281 -29.496094 C 18.757812 -29.285156 17.613281 -28.660156 17.613281 -26.679688 Z M 17.613281 -26.679688 "/></g></g></g><g fill="#ff00ff" fill-opacity="1"><g transform="translate(6.533227, 142.638182)"><g><path d="M 50.753906 -35.644531 L 36.6875 -35.644531 L 36.6875 -37 L 50.753906 -37 Z M 28.765625 -55.445312 L 20.21875 -55.445312 L 20.21875 -56.800781 L 28.765625 -56.800781 Z M 47.941406 -52.214844 L 47.941406 -53.152344 L 57.113281 -53.152344 L 57.113281 -57.53125 C 57.113281 -58.78125 56.488281 -59.40625 56.070312 -59.71875 C 55.550781 -60.136719 54.714844 -60.34375 53.464844 -59.925781 L 33.664062 -53.152344 L 24.492188 -53.152344 L 9.484375 -48.046875 C 8.335938 -47.628906 7.398438 -47.210938 6.671875 -46.691406 L 15.214844 -46.691406 C 14.800781 -46.378906 14.382812 -46.066406 14.175781 -45.648438 C 13.445312 -44.710938 13.027344 -43.460938 13.027344 -42 L 13.027344 -36.6875 C 13.027344 -36.476562 13.027344 -36.269531 13.027344 -36.058594 L 6.671875 -36.058594 C 6.773438 -35.332031 6.984375 -34.601562 7.191406 -33.976562 L 12.296875 -33.976562 C 12.402344 -33.558594 12.609375 -33.246094 12.820312 -33.039062 C 13.546875 -32.101562 14.800781 -31.371094 16.675781 -30.746094 L 51.484375 -18.96875 C 52.421875 -18.65625 53.359375 -18.65625 53.988281 -19.175781 C 54.507812 -19.488281 55.132812 -20.113281 55.132812 -21.367188 L 55.132812 -26.679688 C 55.132812 -28.660156 53.882812 -29.285156 53.152344 -29.496094 L 39.8125 -33.976562 L 34.808594 -33.976562 L 28.242188 -36.058594 L 34.601562 -36.058594 L 25.636719 -39.082031 L 25.636719 -39.605469 L 46.484375 -46.691406 L 37.9375 -46.691406 L 46.066406 -49.402344 C 46.691406 -49.609375 47.941406 -50.234375 47.941406 -52.214844 Z M 47.941406 -52.214844 "/></g></g></g><g fill="#ff00ff" fill-opacity="1"><g transform="translate(71.876323, 142.638182)"><g><path d="M 54.195312 -77.75 L 56.800781 -84.210938 L 47.210938 -84.210938 L 47.941406 -86.292969 C 48.566406 -87.859375 47.421875 -89.628906 45.753906 -89.628906 L 39.1875 -89.628906 C 38.144531 -89.628906 37.207031 -89.003906 36.894531 -88.066406 L 35.332031 -84.210938 L 45.023438 -84.210938 L 42.417969 -77.75 L 30.640625 -77.75 L 29.808594 -75.558594 L 40.230469 -75.558594 L 36.269531 -65.660156 L 29.703125 -65.660156 L 27.097656 -59.09375 L 35.746094 -59.09375 L 31.578125 -48.566406 L 19.699219 -48.566406 L 18.863281 -46.378906 L 30.121094 -46.378906 L 23.554688 -29.808594 L 15.839844 -29.808594 L 13.234375 -23.242188 L 22.09375 -23.242188 L 20.324219 -18.757812 L 14.382812 -18.757812 L 11.777344 -12.296875 L 14.382812 -12.296875 L 10.839844 -3.230469 C 10.109375 -1.667969 11.359375 0.105469 13.027344 0.105469 L 19.59375 0.105469 C 20.636719 0.105469 21.46875 -0.519531 21.886719 -1.460938 L 26.160156 -12.296875 L 23.554688 -12.296875 L 26.160156 -18.757812 L 32.101562 -18.757812 L 33.976562 -23.242188 L 25.117188 -23.242188 L 27.617188 -29.808594 L 35.332031 -29.808594 L 41.898438 -46.378906 L 33.976562 -46.378906 L 34.808594 -48.566406 L 44.816406 -48.566406 L 48.984375 -59.09375 L 38.980469 -59.09375 L 41.480469 -65.660156 L 48.046875 -65.660156 L 52.007812 -75.558594 L 45.230469 -75.558594 L 46.066406 -77.75 Z M 14.800781 -42.105469 L 21.367188 -42.105469 L 21.367188 -40.957031 L 14.800781 -40.957031 Z M 14.800781 -42.105469 "/></g></g></g><g fill="#ff00ff" fill-opacity="1"><g transform="translate(138.886877, 142.638182)"><g><path d="M 70.871094 -82.023438 L 70.871094 -82.4375 C 70.871094 -85.667969 68.890625 -86.085938 67.953125 -86.085938 L 8.128906 -86.085938 C 7.191406 -86.085938 5.210938 -85.667969 5.210938 -82.335938 L 5.210938 -82.023438 L 16.882812 -82.023438 L 16.882812 -79.9375 L 5.210938 -79.9375 L 5.210938 -74.207031 C 5.210938 -73.996094 5.210938 -73.683594 5.316406 -73.476562 L 11.777344 -73.476562 C 12.089844 -70.972656 13.863281 -70.660156 14.589844 -70.660156 L 74.519531 -70.558594 C 75.246094 -70.558594 77.019531 -70.871094 77.332031 -73.476562 L 70.871094 -73.476562 C 70.871094 -73.683594 70.871094 -73.890625 70.871094 -74.207031 L 70.871094 -79.9375 L 82.542969 -79.9375 L 82.542969 -82.023438 Z M 77.019531 -8.023438 L 77.019531 -14.902344 C 77.019531 -16.46875 76.5 -17.300781 75.871094 -17.820312 L 85.042969 -17.820312 C 84.417969 -18.445312 83.585938 -18.550781 83.167969 -18.550781 L 46.378906 -18.550781 C 44.191406 -18.550781 42.417969 -18.757812 41.0625 -19.28125 C 39.707031 -19.699219 38.664062 -20.425781 37.832031 -21.574219 C 37.3125 -22.304688 36.894531 -23.242188 36.582031 -24.285156 L 28.140625 -24.285156 C 27.929688 -24.804688 27.722656 -25.535156 27.617188 -26.160156 C 27.515625 -26.785156 27.515625 -27.410156 27.410156 -28.035156 C 27.410156 -28.035156 27.410156 -28.660156 27.410156 -29.597656 L 65.972656 -29.597656 C 65.972656 -30.328125 65.972656 -31.371094 65.972656 -32.203125 L 27.515625 -32.203125 C 27.515625 -33.140625 27.515625 -34.082031 27.515625 -34.707031 L 33.871094 -34.707031 C 33.871094 -35.226562 33.871094 -35.539062 33.871094 -35.539062 L 80.457031 -35.539062 C 81.082031 -35.539062 82.230469 -35.644531 82.855469 -36.789062 L 76.5 -36.789062 C 76.707031 -37.3125 77.019531 -38.039062 77.019531 -39.082031 L 77.019531 -43.042969 L 81.8125 -43.042969 L 81.8125 -45.960938 L 77.019531 -45.960938 L 77.019531 -47.316406 C 77.019531 -50.546875 74.933594 -50.964844 74.101562 -50.964844 L 20.324219 -50.859375 C 17.300781 -50.652344 14.695312 -48.984375 13.132812 -46.484375 C 13.027344 -46.273438 13.027344 -46.066406 12.921875 -45.960938 L 17.71875 -45.960938 C 17.40625 -45.230469 17.09375 -44.605469 16.882812 -43.773438 L 16.882812 -43.042969 L 12.089844 -43.042969 L 11.984375 -36.789062 L 18.34375 -36.789062 L 18.34375 -34.707031 L 12.089844 -34.707031 L 11.984375 -32.203125 L 22.199219 -32.203125 L 22.199219 -30.121094 C 22.199219 -30.015625 22.199219 -29.808594 22.199219 -29.597656 L 11.984375 -29.597656 C 12.089844 -27.722656 12.195312 -25.949219 12.296875 -24.285156 L 20.84375 -24.285156 C 21.050781 -21.886719 21.367188 -19.800781 21.78125 -17.820312 L 12.609375 -17.820312 C 12.609375 -17.820312 12.714844 -17.71875 12.714844 -17.613281 C 13.546875 -13.863281 14.902344 -10.628906 16.78125 -8.023438 L 25.429688 -8.023438 C 25.535156 -7.921875 25.636719 -7.609375 25.847656 -7.398438 C 26.261719 -6.878906 26.679688 -6.460938 27.203125 -5.941406 L 18.65625 -5.941406 C 20.53125 -4.066406 22.824219 -2.605469 25.429688 -1.667969 C 28.554688 -0.519531 32.515625 0.105469 37.101562 0.105469 L 74.101562 0.105469 C 75.039062 0.105469 77.125 -0.3125 77.125 -3.542969 L 77.125 -5.941406 L 85.566406 -5.941406 L 85.566406 -8.023438 Z M 17.71875 -57.425781 L 52.214844 -57.425781 L 52.214844 -56.277344 L 17.71875 -56.277344 Z M 50.027344 -23.972656 L 73.164062 -23.972656 L 73.164062 -22.824219 L 50.027344 -22.824219 Z M 32.515625 -66.074219 L 67.847656 -66.074219 L 67.847656 -64.410156 L 32.515625 -64.410156 Z M 32.515625 -66.074219 "/></g></g></g><g fill="#ff00ff" fill-opacity="1"><g transform="translate(226.427882, 142.638182)"><g><path d="M 74.207031 -5.523438 L 74.207031 -11.777344 C 74.207031 -15.007812 72.121094 -15.425781 71.285156 -15.425781 L 37.414062 -15.425781 C 35.226562 -15.425781 33.351562 -15.632812 31.996094 -16.152344 L 26.679688 -16.152344 C 25.429688 -16.570312 24.386719 -17.40625 23.65625 -18.445312 C 22.824219 -19.59375 22.304688 -21.15625 21.886719 -23.03125 C 21.886719 -23.03125 21.886719 -23.03125 21.886719 -23.136719 L 26.472656 -23.136719 C 26.160156 -25.117188 25.949219 -27.722656 25.949219 -30.847656 L 25.949219 -34.394531 L 35.121094 -34.394531 L 35.121094 -36.6875 L 26.261719 -36.6875 L 26.261719 -54.402344 L 21.886719 -54.402344 L 21.886719 -61.386719 L 40.75 -61.386719 L 40.75 -66.074219 L 23.34375 -66.074219 L 23.34375 -73.058594 L 26.261719 -73.058594 L 26.261719 -79.9375 L 20.949219 -79.9375 L 20.949219 -82.230469 C 20.949219 -85.566406 18.863281 -85.878906 18.03125 -85.878906 L 8.441406 -85.878906 C 7.503906 -85.878906 5.417969 -85.566406 5.417969 -82.230469 L 5.417969 -79.9375 L 10.839844 -79.9375 L 10.839844 -73.058594 L 1.667969 -73.058594 L 1.667969 -66.074219 L 9.691406 -66.074219 L 9.691406 -61.386719 L 6.359375 -61.386719 L 6.359375 -54.402344 L 10.839844 -54.402344 L 10.839844 -36.6875 L 5.628906 -36.6875 L 5.628906 -34.394531 L 10.527344 -34.394531 L 10.527344 -32.621094 C 10.527344 -29.078125 10.734375 -25.949219 11.046875 -23.136719 L 6.359375 -23.136719 C 6.671875 -21.15625 6.878906 -19.28125 7.296875 -17.71875 C 7.398438 -17.09375 7.609375 -16.675781 7.710938 -16.152344 L 12.921875 -16.152344 C 13.863281 -12.714844 15.214844 -9.691406 17.09375 -7.503906 C 17.613281 -6.773438 18.132812 -6.148438 18.757812 -5.523438 L 8.753906 -5.523438 C 9.691406 -4.691406 10.734375 -3.960938 11.882812 -3.230469 L 24.386719 -3.230469 C 25.429688 -2.605469 26.472656 -2.085938 27.617188 -1.667969 C 30.847656 -0.519531 34.808594 0.105469 39.292969 0.105469 L 73.789062 0.105469 C 74.621094 0.105469 76.5 -0.3125 76.601562 -3.230469 L 79.730469 -3.230469 C 79.730469 -3.335938 79.730469 -3.4375 79.730469 -3.542969 L 79.730469 -5.523438 Z M 54.613281 -40.332031 L 39.394531 -40.332031 L 39.394531 -41.6875 L 54.613281 -41.6875 Z M 49.714844 -22.511719 L 27.828125 -22.511719 L 27.828125 -23.65625 L 49.714844 -23.65625 Z M 53.046875 -73.164062 L 31.683594 -73.164062 L 31.683594 -75.246094 L 53.046875 -75.246094 Z M 53.046875 -73.164062 "/></g></g></g><g fill="#ff00ff" fill-opacity="1"><g transform="translate(311.363505, 142.638182)"><g><path d="M 20.324219 -41.269531 L 6.359375 -41.269531 L 6.359375 -42.625 L 20.324219 -42.625 Z M 21.886719 -35.332031 L 13.339844 -35.332031 L 13.339844 -36.789062 L 21.886719 -36.789062 Z M 17.613281 -26.679688 L 17.613281 -25.742188 L 8.441406 -25.742188 L 8.441406 -21.367188 C 8.441406 -20.113281 9.066406 -19.488281 9.484375 -19.175781 C 10.003906 -18.863281 10.839844 -18.550781 12.089844 -18.96875 L 31.890625 -25.742188 L 41.0625 -25.742188 L 56.070312 -30.953125 C 57.21875 -31.265625 58.15625 -31.789062 58.78125 -32.203125 L 50.339844 -32.203125 C 50.753906 -32.515625 51.171875 -32.933594 51.382812 -33.246094 C 52.109375 -34.183594 52.527344 -35.433594 52.527344 -36.894531 L 52.527344 -42.210938 C 52.527344 -42.417969 52.527344 -42.625 52.421875 -42.835938 L 58.78125 -42.835938 C 58.78125 -43.667969 58.570312 -44.398438 58.257812 -45.023438 L 53.257812 -45.023438 C 53.152344 -45.335938 52.945312 -45.648438 52.734375 -45.960938 C 52.007812 -46.898438 50.753906 -47.628906 48.878906 -48.253906 L 14.070312 -59.925781 C 13.027344 -60.34375 12.195312 -60.238281 11.464844 -59.71875 C 11.046875 -59.40625 10.421875 -58.78125 10.421875 -57.53125 L 10.421875 -52.320312 C 10.421875 -50.234375 11.671875 -49.609375 12.402344 -49.402344 L 25.742188 -45.023438 L 30.746094 -45.023438 L 37.3125 -42.835938 L 30.953125 -42.835938 L 39.917969 -39.917969 L 39.917969 -39.292969 L 19.074219 -32.203125 L 27.617188 -32.203125 L 19.488281 -29.496094 C 18.757812 -29.285156 17.613281 -28.660156 17.613281 -26.679688 Z M 17.613281 -26.679688 "/></g></g></g><g fill="#00ffff" fill-opacity="1"><g transform="translate(-6.495032, 142.638182)"><g><path d="M 50.753906 -35.644531 L 36.6875 -35.644531 L 36.6875 -37 L 50.753906 -37 Z M 28.765625 -55.445312 L 20.21875 -55.445312 L 20.21875 -56.800781 L 28.765625 -56.800781 Z M 47.941406 -52.214844 L 47.941406 -53.152344 L 57.113281 -53.152344 L 57.113281 -57.53125 C 57.113281 -58.78125 56.488281 -59.40625 56.070312 -59.71875 C 55.550781 -60.136719 54.714844 -60.34375 53.464844 -59.925781 L 33.664062 -53.152344 L 24.492188 -53.152344 L 9.484375 -48.046875 C 8.335938 -47.628906 7.398438 -47.210938 6.671875 -46.691406 L 15.214844 -46.691406 C 14.800781 -46.378906 14.382812 -46.066406 14.175781 -45.648438 C 13.445312 -44.710938 13.027344 -43.460938 13.027344 -42 L 13.027344 -36.6875 C 13.027344 -36.476562 13.027344 -36.269531 13.027344 -36.058594 L 6.671875 -36.058594 C 6.773438 -35.332031 6.984375 -34.601562 7.191406 -33.976562 L 12.296875 -33.976562 C 12.402344 -33.558594 12.609375 -33.246094 12.820312 -33.039062 C 13.546875 -32.101562 14.800781 -31.371094 16.675781 -30.746094 L 51.484375 -18.96875 C 52.421875 -18.65625 53.359375 -18.65625 53.988281 -19.175781 C 54.507812 -19.488281 55.132812 -20.113281 55.132812 -21.367188 L 55.132812 -26.679688 C 55.132812 -28.660156 53.882812 -29.285156 53.152344 -29.496094 L 39.8125 -33.976562 L 34.808594 -33.976562 L 28.242188 -36.058594 L 34.601562 -36.058594 L 25.636719 -39.082031 L 25.636719 -39.605469 L 46.484375 -46.691406 L 37.9375 -46.691406 L 46.066406 -49.402344 C 46.691406 -49.609375 47.941406 -50.234375 47.941406 -52.214844 Z M 47.941406 -52.214844 "/></g></g></g><g fill="#00ffff" fill-opacity="1"><g transform="translate(58.848065, 142.638182)"><g><path d="M 54.195312 -77.75 L 56.800781 -84.210938 L 47.210938 -84.210938 L 47.941406 -86.292969 C 48.566406 -87.859375 47.421875 -89.628906 45.753906 -89.628906 L 39.1875 -89.628906 C 38.144531 -89.628906 37.207031 -89.003906 36.894531 -88.066406 L 35.332031 -84.210938 L 45.023438 -84.210938 L 42.417969 -77.75 L 30.640625 -77.75 L 29.808594 -75.558594 L 40.230469 -75.558594 L 36.269531 -65.660156 L 29.703125 -65.660156 L 27.097656 -59.09375 L 35.746094 -59.09375 L 31.578125 -48.566406 L 19.699219 -48.566406 L 18.863281 -46.378906 L 30.121094 -46.378906 L 23.554688 -29.808594 L 15.839844 -29.808594 L 13.234375 -23.242188 L 22.09375 -23.242188 L 20.324219 -18.757812 L 14.382812 -18.757812 L 11.777344 -12.296875 L 14.382812 -12.296875 L 10.839844 -3.230469 C 10.109375 -1.667969 11.359375 0.105469 13.027344 0.105469 L 19.59375 0.105469 C 20.636719 0.105469 21.46875 -0.519531 21.886719 -1.460938 L 26.160156 -12.296875 L 23.554688 -12.296875 L 26.160156 -18.757812 L 32.101562 -18.757812 L 33.976562 -23.242188 L 25.117188 -23.242188 L 27.617188 -29.808594 L 35.332031 -29.808594 L 41.898438 -46.378906 L 33.976562 -46.378906 L 34.808594 -48.566406 L 44.816406 -48.566406 L 48.984375 -59.09375 L 38.980469 -59.09375 L 41.480469 -65.660156 L 48.046875 -65.660156 L 52.007812 -75.558594 L 45.230469 -75.558594 L 46.066406 -77.75 Z M 14.800781 -42.105469 L 21.367188 -42.105469 L 21.367188 -40.957031 L 14.800781 -40.957031 Z M 14.800781 -42.105469 "/></g></g></g><g fill="#00ffff" fill-opacity="1"><g transform="translate(125.858619, 142.638182)"><g><path d="M 70.871094 -82.023438 L 70.871094 -82.4375 C 70.871094 -85.667969 68.890625 -86.085938 67.953125 -86.085938 L 8.128906 -86.085938 C 7.191406 -86.085938 5.210938 -85.667969 5.210938 -82.335938 L 5.210938 -82.023438 L 16.882812 -82.023438 L 16.882812 -79.9375 L 5.210938 -79.9375 L 5.210938 -74.207031 C 5.210938 -73.996094 5.210938 -73.683594 5.316406 -73.476562 L 11.777344 -73.476562 C 12.089844 -70.972656 13.863281 -70.660156 14.589844 -70.660156 L 74.519531 -70.558594 C 75.246094 -70.558594 77.019531 -70.871094 77.332031 -73.476562 L 70.871094 -73.476562 C 70.871094 -73.683594 70.871094 -73.890625 70.871094 -74.207031 L 70.871094 -79.9375 L 82.542969 -79.9375 L 82.542969 -82.023438 Z M 77.019531 -8.023438 L 77.019531 -14.902344 C 77.019531 -16.46875 76.5 -17.300781 75.871094 -17.820312 L 85.042969 -17.820312 C 84.417969 -18.445312 83.585938 -18.550781 83.167969 -18.550781 L 46.378906 -18.550781 C 44.191406 -18.550781 42.417969 -18.757812 41.0625 -19.28125 C 39.707031 -19.699219 38.664062 -20.425781 37.832031 -21.574219 C 37.3125 -22.304688 36.894531 -23.242188 36.582031 -24.285156 L 28.140625 -24.285156 C 27.929688 -24.804688 27.722656 -25.535156 27.617188 -26.160156 C 27.515625 -26.785156 27.515625 -27.410156 27.410156 -28.035156 C 27.410156 -28.035156 27.410156 -28.660156 27.410156 -29.597656 L 65.972656 -29.597656 C 65.972656 -30.328125 65.972656 -31.371094 65.972656 -32.203125 L 27.515625 -32.203125 C 27.515625 -33.140625 27.515625 -34.082031 27.515625 -34.707031 L 33.871094 -34.707031 C 33.871094 -35.226562 33.871094 -35.539062 33.871094 -35.539062 L 80.457031 -35.539062 C 81.082031 -35.539062 82.230469 -35.644531 82.855469 -36.789062 L 76.5 -36.789062 C 76.707031 -37.3125 77.019531 -38.039062 77.019531 -39.082031 L 77.019531 -43.042969 L 81.8125 -43.042969 L 81.8125 -45.960938 L 77.019531 -45.960938 L 77.019531 -47.316406 C 77.019531 -50.546875 74.933594 -50.964844 74.101562 -50.964844 L 20.324219 -50.859375 C 17.300781 -50.652344 14.695312 -48.984375 13.132812 -46.484375 C 13.027344 -46.273438 13.027344 -46.066406 12.921875 -45.960938 L 17.71875 -45.960938 C 17.40625 -45.230469 17.09375 -44.605469 16.882812 -43.773438 L 16.882812 -43.042969 L 12.089844 -43.042969 L 11.984375 -36.789062 L 18.34375 -36.789062 L 18.34375 -34.707031 L 12.089844 -34.707031 L 11.984375 -32.203125 L 22.199219 -32.203125 L 22.199219 -30.121094 C 22.199219 -30.015625 22.199219 -29.808594 22.199219 -29.597656 L 11.984375 -29.597656 C 12.089844 -27.722656 12.195312 -25.949219 12.296875 -24.285156 L 20.84375 -24.285156 C 21.050781 -21.886719 21.367188 -19.800781 21.78125 -17.820312 L 12.609375 -17.820312 C 12.609375 -17.820312 12.714844 -17.71875 12.714844 -17.613281 C 13.546875 -13.863281 14.902344 -10.628906 16.78125 -8.023438 L 25.429688 -8.023438 C 25.535156 -7.921875 25.636719 -7.609375 25.847656 -7.398438 C 26.261719 -6.878906 26.679688 -6.460938 27.203125 -5.941406 L 18.65625 -5.941406 C 20.53125 -4.066406 22.824219 -2.605469 25.429688 -1.667969 C 28.554688 -0.519531 32.515625 0.105469 37.101562 0.105469 L 74.101562 0.105469 C 75.039062 0.105469 77.125 -0.3125 77.125 -3.542969 L 77.125 -5.941406 L 85.566406 -5.941406 L 85.566406 -8.023438 Z M 17.71875 -57.425781 L 52.214844 -57.425781 L 52.214844 -56.277344 L 17.71875 -56.277344 Z M 50.027344 -23.972656 L 73.164062 -23.972656 L 73.164062 -22.824219 L 50.027344 -22.824219 Z M 32.515625 -66.074219 L 67.847656 -66.074219 L 67.847656 -64.410156 L 32.515625 -64.410156 Z M 32.515625 -66.074219 "/></g></g></g><g fill="#00ffff" fill-opacity="1"><g transform="translate(213.399624, 142.638182)"><g><path d="M 74.207031 -5.523438 L 74.207031 -11.777344 C 74.207031 -15.007812 72.121094 -15.425781 71.285156 -15.425781 L 37.414062 -15.425781 C 35.226562 -15.425781 33.351562 -15.632812 31.996094 -16.152344 L 26.679688 -16.152344 C 25.429688 -16.570312 24.386719 -17.40625 23.65625 -18.445312 C 22.824219 -19.59375 22.304688 -21.15625 21.886719 -23.03125 C 21.886719 -23.03125 21.886719 -23.03125 21.886719 -23.136719 L 26.472656 -23.136719 C 26.160156 -25.117188 25.949219 -27.722656 25.949219 -30.847656 L 25.949219 -34.394531 L 35.121094 -34.394531 L 35.121094 -36.6875 L 26.261719 -36.6875 L 26.261719 -54.402344 L 21.886719 -54.402344 L 21.886719 -61.386719 L 40.75 -61.386719 L 40.75 -66.074219 L 23.34375 -66.074219 L 23.34375 -73.058594 L 26.261719 -73.058594 L 26.261719 -79.9375 L 20.949219 -79.9375 L 20.949219 -82.230469 C 20.949219 -85.566406 18.863281 -85.878906 18.03125 -85.878906 L 8.441406 -85.878906 C 7.503906 -85.878906 5.417969 -85.566406 5.417969 -82.230469 L 5.417969 -79.9375 L 10.839844 -79.9375 L 10.839844 -73.058594 L 1.667969 -73.058594 L 1.667969 -66.074219 L 9.691406 -66.074219 L 9.691406 -61.386719 L 6.359375 -61.386719 L 6.359375 -54.402344 L 10.839844 -54.402344 L 10.839844 -36.6875 L 5.628906 -36.6875 L 5.628906 -34.394531 L 10.527344 -34.394531 L 10.527344 -32.621094 C 10.527344 -29.078125 10.734375 -25.949219 11.046875 -23.136719 L 6.359375 -23.136719 C 6.671875 -21.15625 6.878906 -19.28125 7.296875 -17.71875 C 7.398438 -17.09375 7.609375 -16.675781 7.710938 -16.152344 L 12.921875 -16.152344 C 13.863281 -12.714844 15.214844 -9.691406 17.09375 -7.503906 C 17.613281 -6.773438 18.132812 -6.148438 18.757812 -5.523438 L 8.753906 -5.523438 C 9.691406 -4.691406 10.734375 -3.960938 11.882812 -3.230469 L 24.386719 -3.230469 C 25.429688 -2.605469 26.472656 -2.085938 27.617188 -1.667969 C 30.847656 -0.519531 34.808594 0.105469 39.292969 0.105469 L 73.789062 0.105469 C 74.621094 0.105469 76.5 -0.3125 76.601562 -3.230469 L 79.730469 -3.230469 C 79.730469 -3.335938 79.730469 -3.4375 79.730469 -3.542969 L 79.730469 -5.523438 Z M 54.613281 -40.332031 L 39.394531 -40.332031 L 39.394531 -41.6875 L 54.613281 -41.6875 Z M 49.714844 -22.511719 L 27.828125 -22.511719 L 27.828125 -23.65625 L 49.714844 -23.65625 Z M 53.046875 -73.164062 L 31.683594 -73.164062 L 31.683594 -75.246094 L 53.046875 -75.246094 Z M 53.046875 -73.164062 "/></g></g></g><g fill="#00ffff" fill-opacity="1"><g transform="translate(298.335247, 142.638182)"><g><path d="M 20.324219 -41.269531 L 6.359375 -41.269531 L 6.359375 -42.625 L 20.324219 -42.625 Z M 21.886719 -35.332031 L 13.339844 -35.332031 L 13.339844 -36.789062 L 21.886719 -36.789062 Z M 17.613281 -26.679688 L 17.613281 -25.742188 L 8.441406 -25.742188 L 8.441406 -21.367188 C 8.441406 -20.113281 9.066406 -19.488281 9.484375 -19.175781 C 10.003906 -18.863281 10.839844 -18.550781 12.089844 -18.96875 L 31.890625 -25.742188 L 41.0625 -25.742188 L 56.070312 -30.953125 C 57.21875 -31.265625 58.15625 -31.789062 58.78125 -32.203125 L 50.339844 -32.203125 C 50.753906 -32.515625 51.171875 -32.933594 51.382812 -33.246094 C 52.109375 -34.183594 52.527344 -35.433594 52.527344 -36.894531 L 52.527344 -42.210938 C 52.527344 -42.417969 52.527344 -42.625 52.421875 -42.835938 L 58.78125 -42.835938 C 58.78125 -43.667969 58.570312 -44.398438 58.257812 -45.023438 L 53.257812 -45.023438 C 53.152344 -45.335938 52.945312 -45.648438 52.734375 -45.960938 C 52.007812 -46.898438 50.753906 -47.628906 48.878906 -48.253906 L 14.070312 -59.925781 C 13.027344 -60.34375 12.195312 -60.238281 11.464844 -59.71875 C 11.046875 -59.40625 10.421875 -58.78125 10.421875 -57.53125 L 10.421875 -52.320312 C 10.421875 -50.234375 11.671875 -49.609375 12.402344 -49.402344 L 25.742188 -45.023438 L 30.746094 -45.023438 L 37.3125 -42.835938 L 30.953125 -42.835938 L 39.917969 -39.917969 L 39.917969 -39.292969 L 19.074219 -32.203125 L 27.617188 -32.203125 L 19.488281 -29.496094 C 18.757812 -29.285156 17.613281 -28.660156 17.613281 -26.679688 Z M 17.613281 -26.679688 "/></g></g></g><g fill="#8f00ff" fill-opacity="1"><g transform="translate(0.0190976, 142.638182)"><g><path d="M 50.753906 -35.644531 L 36.6875 -35.644531 L 36.6875 -37 L 50.753906 -37 Z M 28.765625 -55.445312 L 20.21875 -55.445312 L 20.21875 -56.800781 L 28.765625 -56.800781 Z M 47.941406 -52.214844 L 47.941406 -53.152344 L 57.113281 -53.152344 L 57.113281 -57.53125 C 57.113281 -58.78125 56.488281 -59.40625 56.070312 -59.71875 C 55.550781 -60.136719 54.714844 -60.34375 53.464844 -59.925781 L 33.664062 -53.152344 L 24.492188 -53.152344 L 9.484375 -48.046875 C 8.335938 -47.628906 7.398438 -47.210938 6.671875 -46.691406 L 15.214844 -46.691406 C 14.800781 -46.378906 14.382812 -46.066406 14.175781 -45.648438 C 13.445312 -44.710938 13.027344 -43.460938 13.027344 -42 L 13.027344 -36.6875 C 13.027344 -36.476562 13.027344 -36.269531 13.027344 -36.058594 L 6.671875 -36.058594 C 6.773438 -35.332031 6.984375 -34.601562 7.191406 -33.976562 L 12.296875 -33.976562 C 12.402344 -33.558594 12.609375 -33.246094 12.820312 -33.039062 C 13.546875 -32.101562 14.800781 -31.371094 16.675781 -30.746094 L 51.484375 -18.96875 C 52.421875 -18.65625 53.359375 -18.65625 53.988281 -19.175781 C 54.507812 -19.488281 55.132812 -20.113281 55.132812 -21.367188 L 55.132812 -26.679688 C 55.132812 -28.660156 53.882812 -29.285156 53.152344 -29.496094 L 39.8125 -33.976562 L 34.808594 -33.976562 L 28.242188 -36.058594 L 34.601562 -36.058594 L 25.636719 -39.082031 L 25.636719 -39.605469 L 46.484375 -46.691406 L 37.9375 -46.691406 L 46.066406 -49.402344 C 46.691406 -49.609375 47.941406 -50.234375 47.941406 -52.214844 Z M 47.941406 -52.214844 "/></g></g></g><g fill="#8f00ff" fill-opacity="1"><g transform="translate(65.362194, 142.638182)"><g><path d="M 54.195312 -77.75 L 56.800781 -84.210938 L 47.210938 -84.210938 L 47.941406 -86.292969 C 48.566406 -87.859375 47.421875 -89.628906 45.753906 -89.628906 L 39.1875 -89.628906 C 38.144531 -89.628906 37.207031 -89.003906 36.894531 -88.066406 L 35.332031 -84.210938 L 45.023438 -84.210938 L 42.417969 -77.75 L 30.640625 -77.75 L 29.808594 -75.558594 L 40.230469 -75.558594 L 36.269531 -65.660156 L 29.703125 -65.660156 L 27.097656 -59.09375 L 35.746094 -59.09375 L 31.578125 -48.566406 L 19.699219 -48.566406 L 18.863281 -46.378906 L 30.121094 -46.378906 L 23.554688 -29.808594 L 15.839844 -29.808594 L 13.234375 -23.242188 L 22.09375 -23.242188 L 20.324219 -18.757812 L 14.382812 -18.757812 L 11.777344 -12.296875 L 14.382812 -12.296875 L 10.839844 -3.230469 C 10.109375 -1.667969 11.359375 0.105469 13.027344 0.105469 L 19.59375 0.105469 C 20.636719 0.105469 21.46875 -0.519531 21.886719 -1.460938 L 26.160156 -12.296875 L 23.554688 -12.296875 L 26.160156 -18.757812 L 32.101562 -18.757812 L 33.976562 -23.242188 L 25.117188 -23.242188 L 27.617188 -29.808594 L 35.332031 -29.808594 L 41.898438 -46.378906 L 33.976562 -46.378906 L 34.808594 -48.566406 L 44.816406 -48.566406 L 48.984375 -59.09375 L 38.980469 -59.09375 L 41.480469 -65.660156 L 48.046875 -65.660156 L 52.007812 -75.558594 L 45.230469 -75.558594 L 46.066406 -77.75 Z M 14.800781 -42.105469 L 21.367188 -42.105469 L 21.367188 -40.957031 L 14.800781 -40.957031 Z M 14.800781 -42.105469 "/></g></g></g><g fill="#8f00ff" fill-opacity="1"><g transform="translate(132.372748, 142.638182)"><g><path d="M 70.871094 -82.023438 L 70.871094 -82.4375 C 70.871094 -85.667969 68.890625 -86.085938 67.953125 -86.085938 L 8.128906 -86.085938 C 7.191406 -86.085938 5.210938 -85.667969 5.210938 -82.335938 L 5.210938 -82.023438 L 16.882812 -82.023438 L 16.882812 -79.9375 L 5.210938 -79.9375 L 5.210938 -74.207031 C 5.210938 -73.996094 5.210938 -73.683594 5.316406 -73.476562 L 11.777344 -73.476562 C 12.089844 -70.972656 13.863281 -70.660156 14.589844 -70.660156 L 74.519531 -70.558594 C 75.246094 -70.558594 77.019531 -70.871094 77.332031 -73.476562 L 70.871094 -73.476562 C 70.871094 -73.683594 70.871094 -73.890625 70.871094 -74.207031 L 70.871094 -79.9375 L 82.542969 -79.9375 L 82.542969 -82.023438 Z M 77.019531 -8.023438 L 77.019531 -14.902344 C 77.019531 -16.46875 76.5 -17.300781 75.871094 -17.820312 L 85.042969 -17.820312 C 84.417969 -18.445312 83.585938 -18.550781 83.167969 -18.550781 L 46.378906 -18.550781 C 44.191406 -18.550781 42.417969 -18.757812 41.0625 -19.28125 C 39.707031 -19.699219 38.664062 -20.425781 37.832031 -21.574219 C 37.3125 -22.304688 36.894531 -23.242188 36.582031 -24.285156 L 28.140625 -24.285156 C 27.929688 -24.804688 27.722656 -25.535156 27.617188 -26.160156 C 27.515625 -26.785156 27.515625 -27.410156 27.410156 -28.035156 C 27.410156 -28.035156 27.410156 -28.660156 27.410156 -29.597656 L 65.972656 -29.597656 C 65.972656 -30.328125 65.972656 -31.371094 65.972656 -32.203125 L 27.515625 -32.203125 C 27.515625 -33.140625 27.515625 -34.082031 27.515625 -34.707031 L 33.871094 -34.707031 C 33.871094 -35.226562 33.871094 -35.539062 33.871094 -35.539062 L 80.457031 -35.539062 C 81.082031 -35.539062 82.230469 -35.644531 82.855469 -36.789062 L 76.5 -36.789062 C 76.707031 -37.3125 77.019531 -38.039062 77.019531 -39.082031 L 77.019531 -43.042969 L 81.8125 -43.042969 L 81.8125 -45.960938 L 77.019531 -45.960938 L 77.019531 -47.316406 C 77.019531 -50.546875 74.933594 -50.964844 74.101562 -50.964844 L 20.324219 -50.859375 C 17.300781 -50.652344 14.695312 -48.984375 13.132812 -46.484375 C 13.027344 -46.273438 13.027344 -46.066406 12.921875 -45.960938 L 17.71875 -45.960938 C 17.40625 -45.230469 17.09375 -44.605469 16.882812 -43.773438 L 16.882812 -43.042969 L 12.089844 -43.042969 L 11.984375 -36.789062 L 18.34375 -36.789062 L 18.34375 -34.707031 L 12.089844 -34.707031 L 11.984375 -32.203125 L 22.199219 -32.203125 L 22.199219 -30.121094 C 22.199219 -30.015625 22.199219 -29.808594 22.199219 -29.597656 L 11.984375 -29.597656 C 12.089844 -27.722656 12.195312 -25.949219 12.296875 -24.285156 L 20.84375 -24.285156 C 21.050781 -21.886719 21.367188 -19.800781 21.78125 -17.820312 L 12.609375 -17.820312 C 12.609375 -17.820312 12.714844 -17.71875 12.714844 -17.613281 C 13.546875 -13.863281 14.902344 -10.628906 16.78125 -8.023438 L 25.429688 -8.023438 C 25.535156 -7.921875 25.636719 -7.609375 25.847656 -7.398438 C 26.261719 -6.878906 26.679688 -6.460938 27.203125 -5.941406 L 18.65625 -5.941406 C 20.53125 -4.066406 22.824219 -2.605469 25.429688 -1.667969 C 28.554688 -0.519531 32.515625 0.105469 37.101562 0.105469 L 74.101562 0.105469 C 75.039062 0.105469 77.125 -0.3125 77.125 -3.542969 L 77.125 -5.941406 L 85.566406 -5.941406 L 85.566406 -8.023438 Z M 17.71875 -57.425781 L 52.214844 -57.425781 L 52.214844 -56.277344 L 17.71875 -56.277344 Z M 50.027344 -23.972656 L 73.164062 -23.972656 L 73.164062 -22.824219 L 50.027344 -22.824219 Z M 32.515625 -66.074219 L 67.847656 -66.074219 L 67.847656 -64.410156 L 32.515625 -64.410156 Z M 32.515625 -66.074219 "/></g></g></g><g fill="#8f00ff" fill-opacity="1"><g transform="translate(219.913753, 142.638182)"><g><path d="M 74.207031 -5.523438 L 74.207031 -11.777344 C 74.207031 -15.007812 72.121094 -15.425781 71.285156 -15.425781 L 37.414062 -15.425781 C 35.226562 -15.425781 33.351562 -15.632812 31.996094 -16.152344 L 26.679688 -16.152344 C 25.429688 -16.570312 24.386719 -17.40625 23.65625 -18.445312 C 22.824219 -19.59375 22.304688 -21.15625 21.886719 -23.03125 C 21.886719 -23.03125 21.886719 -23.03125 21.886719 -23.136719 L 26.472656 -23.136719 C 26.160156 -25.117188 25.949219 -27.722656 25.949219 -30.847656 L 25.949219 -34.394531 L 35.121094 -34.394531 L 35.121094 -36.6875 L 26.261719 -36.6875 L 26.261719 -54.402344 L 21.886719 -54.402344 L 21.886719 -61.386719 L 40.75 -61.386719 L 40.75 -66.074219 L 23.34375 -66.074219 L 23.34375 -73.058594 L 26.261719 -73.058594 L 26.261719 -79.9375 L 20.949219 -79.9375 L 20.949219 -82.230469 C 20.949219 -85.566406 18.863281 -85.878906 18.03125 -85.878906 L 8.441406 -85.878906 C 7.503906 -85.878906 5.417969 -85.566406 5.417969 -82.230469 L 5.417969 -79.9375 L 10.839844 -79.9375 L 10.839844 -73.058594 L 1.667969 -73.058594 L 1.667969 -66.074219 L 9.691406 -66.074219 L 9.691406 -61.386719 L 6.359375 -61.386719 L 6.359375 -54.402344 L 10.839844 -54.402344 L 10.839844 -36.6875 L 5.628906 -36.6875 L 5.628906 -34.394531 L 10.527344 -34.394531 L 10.527344 -32.621094 C 10.527344 -29.078125 10.734375 -25.949219 11.046875 -23.136719 L 6.359375 -23.136719 C 6.671875 -21.15625 6.878906 -19.28125 7.296875 -17.71875 C 7.398438 -17.09375 7.609375 -16.675781 7.710938 -16.152344 L 12.921875 -16.152344 C 13.863281 -12.714844 15.214844 -9.691406 17.09375 -7.503906 C 17.613281 -6.773438 18.132812 -6.148438 18.757812 -5.523438 L 8.753906 -5.523438 C 9.691406 -4.691406 10.734375 -3.960938 11.882812 -3.230469 L 24.386719 -3.230469 C 25.429688 -2.605469 26.472656 -2.085938 27.617188 -1.667969 C 30.847656 -0.519531 34.808594 0.105469 39.292969 0.105469 L 73.789062 0.105469 C 74.621094 0.105469 76.5 -0.3125 76.601562 -3.230469 L 79.730469 -3.230469 C 79.730469 -3.335938 79.730469 -3.4375 79.730469 -3.542969 L 79.730469 -5.523438 Z M 54.613281 -40.332031 L 39.394531 -40.332031 L 39.394531 -41.6875 L 54.613281 -41.6875 Z M 49.714844 -22.511719 L 27.828125 -22.511719 L 27.828125 -23.65625 L 49.714844 -23.65625 Z M 53.046875 -73.164062 L 31.683594 -73.164062 L 31.683594 -75.246094 L 53.046875 -75.246094 Z M 53.046875 -73.164062 "/></g></g></g><g fill="#8f00ff" fill-opacity="1"><g transform="translate(304.849376, 142.638182)"><g><path d="M 20.324219 -41.269531 L 6.359375 -41.269531 L 6.359375 -42.625 L 20.324219 -42.625 Z M 21.886719 -35.332031 L 13.339844 -35.332031 L 13.339844 -36.789062 L 21.886719 -36.789062 Z M 17.613281 -26.679688 L 17.613281 -25.742188 L 8.441406 -25.742188 L 8.441406 -21.367188 C 8.441406 -20.113281 9.066406 -19.488281 9.484375 -19.175781 C 10.003906 -18.863281 10.839844 -18.550781 12.089844 -18.96875 L 31.890625 -25.742188 L 41.0625 -25.742188 L 56.070312 -30.953125 C 57.21875 -31.265625 58.15625 -31.789062 58.78125 -32.203125 L 50.339844 -32.203125 C 50.753906 -32.515625 51.171875 -32.933594 51.382812 -33.246094 C 52.109375 -34.183594 52.527344 -35.433594 52.527344 -36.894531 L 52.527344 -42.210938 C 52.527344 -42.417969 52.527344 -42.625 52.421875 -42.835938 L 58.78125 -42.835938 C 58.78125 -43.667969 58.570312 -44.398438 58.257812 -45.023438 L 53.257812 -45.023438 C 53.152344 -45.335938 52.945312 -45.648438 52.734375 -45.960938 C 52.007812 -46.898438 50.753906 -47.628906 48.878906 -48.253906 L 14.070312 -59.925781 C 13.027344 -60.34375 12.195312 -60.238281 11.464844 -59.71875 C 11.046875 -59.40625 10.421875 -58.78125 10.421875 -57.53125 L 10.421875 -52.320312 C 10.421875 -50.234375 11.671875 -49.609375 12.402344 -49.402344 L 25.742188 -45.023438 L 30.746094 -45.023438 L 37.3125 -42.835938 L 30.953125 -42.835938 L 39.917969 -39.917969 L 39.917969 -39.292969 L 19.074219 -32.203125 L 27.617188 -32.203125 L 19.488281 -29.496094 C 18.757812 -29.285156 17.613281 -28.660156 17.613281 -26.679688 Z M 17.613281 -26.679688 "/></g></g></g></svg>